<svg width="97" height="32" viewBox="0 0 97 32" fill="none" xmlns="http://www.w3.org/2000/svg"><g clip-path="url(#clip0_314_3206)"><rect width="32" height="32" rx="4" fill="white"></rect><g filter="url(#filter0_f_314_3206)"><ellipse cx="20" cy="6.25" rx="14" ry="9.25" fill="#08C4C2"></ellipse></g><g filter="url(#filter1_f_314_3206)"><ellipse cx="3.75" cy="17.5" rx="13.25" ry="26" fill="#0BA7E3"></ellipse></g><g filter="url(#filter2_f_314_3206)"><circle cx="25.25" cy="30.75" r="19.25" fill="#0610D7"></circle></g><path fill-rule="evenodd" clip-rule="evenodd" d="M5.48061 15.3372C3.50646 13.3727 3.50646 10.1878 5.48061 8.22332C7.45469 6.25889 10.6554 6.25889 12.6295 8.22332L21.5764 17.1262V15.0934L15.5124 9.05923C15.4561 9.01267 15.4042 8.96102 15.3574 8.90498L15.3476 8.89517L15.3485 8.8942C15.1834 8.69165 15.0845 8.43351 15.0845 8.15237C15.0845 7.50154 15.6147 6.97393 16.2688 6.97393H22.7607C23.4147 6.97393 23.9449 7.50154 23.9449 8.15237V14.101L26.5194 16.6628C28.4935 18.6273 28.4935 21.8122 26.5194 23.7767C24.5453 25.7411 21.3446 25.7411 19.3705 23.7767L10.2832 14.7341V16.7669L16.5799 23.0326C16.828 23.2486 16.9847 23.5661 16.9847 23.9199C16.9847 24.5707 16.4545 25.0983 15.8005 25.0983H9.06068C8.40663 25.0983 7.87642 24.5707 7.87642 23.9199C7.87642 23.905 7.8767 23.8902 7.87725 23.8754V17.7221L5.48061 15.3372ZM23.9449 17.4503V20.0217C23.9449 20.6725 23.4147 21.2001 22.7607 21.2001C22.3688 21.2001 22.0214 21.0107 21.8058 20.7188L10.8838 9.85053C10.73 9.69744 10.562 9.567 10.3841 9.45918C9.35411 8.80987 7.97416 8.93211 7.07596 9.8259C6.03546 10.8613 6.03546 12.54 7.07596 13.5754L7.87725 14.3727V11.858C7.87725 11.2071 8.40746 10.6795 9.06151 10.6795H9.09894C9.39828 10.6795 9.67169 10.7901 9.88019 10.9723L21.1162 22.1495C21.27 22.3026 21.438 22.433 21.6159 22.5408C22.6459 23.1901 24.0258 23.0679 24.924 22.1741C25.9645 21.1387 25.9645 19.46 24.924 18.4246L23.9449 17.4503ZM21.5764 11.7441V9.33082H19.1512L21.5764 11.7441ZM10.2832 22.7415V20.1162L12.9214 22.7415H10.2832Z" fill="white"></path></g><path d="M90.444 11.7129C91.618 11.7129 92.6454 11.9523 93.5259 12.4312C94.4219 12.9101 95.1171 13.5976 95.6114 14.4936C96.1212 15.3896 96.3761 16.471 96.3761 17.7377C96.3761 18.989 96.1212 20.0704 95.6114 20.9819C95.1171 21.8779 94.4219 22.5653 93.5259 23.0442C92.6454 23.5231 91.618 23.7625 90.444 23.7625C89.2854 23.7625 88.258 23.5231 87.362 23.0442C86.466 22.5653 85.7632 21.8779 85.2534 20.9819C84.759 20.0704 84.5118 18.989 84.5118 17.7377C84.5118 16.471 84.759 15.3896 85.2534 14.4936C85.7632 13.5976 86.466 12.9101 87.362 12.4312C88.258 11.9523 89.2854 11.7129 90.444 11.7129ZM90.444 14.0765C89.8569 14.0765 89.3549 14.2155 88.9378 14.4936C88.5361 14.7562 88.2272 15.1579 88.0109 15.6985C87.7946 16.2392 87.6865 16.919 87.6865 17.7377C87.6865 18.5565 87.7946 19.2362 88.0109 19.7769C88.2272 20.3176 88.5361 20.727 88.9378 21.005C89.3549 21.2677 89.8569 21.399 90.444 21.399C91.0156 21.399 91.5022 21.2677 91.9038 21.005C92.3209 20.727 92.6376 20.3176 92.8539 19.7769C93.0702 19.2362 93.1783 18.5565 93.1783 17.7377C93.1783 16.919 93.0702 16.2392 92.8539 15.6985C92.6376 15.1579 92.3209 14.7562 91.9038 14.4936C91.5022 14.2155 91.0156 14.0765 90.444 14.0765Z" fill="#FFFFFF"></path><path d="M79.7838 11.9453H83.0742L78.6715 23.5315H75.0102L70.6075 11.9453H73.9907L76.864 21.0984L79.7838 11.9453Z" fill="#FFFFFF"></path><path d="M63.2671 11.7129C64.4412 11.7129 65.4685 11.9523 66.3491 12.4312C67.2451 12.9101 67.9402 13.5976 68.4346 14.4936C68.9444 15.3896 69.1993 16.471 69.1993 17.7377C69.1993 18.989 68.9444 20.0704 68.4346 20.9819C67.9402 21.8779 67.2451 22.5653 66.3491 23.0442C65.4685 23.5231 64.4412 23.7625 63.2671 23.7625C62.1085 23.7625 61.0812 23.5231 60.1852 23.0442C59.2892 22.5653 58.5863 21.8779 58.0765 20.9819C57.5822 20.0704 57.335 18.989 57.335 17.7377C57.335 16.471 57.5822 15.3896 58.0765 14.4936C58.5863 13.5976 59.2892 12.9101 60.1852 12.4312C61.0812 11.9523 62.1085 11.7129 63.2671 11.7129ZM63.2671 14.0765C62.6801 14.0765 62.178 14.2155 61.7609 14.4936C61.3593 14.7562 61.0503 15.1579 60.834 15.6985C60.6177 16.2392 60.5096 16.919 60.5096 17.7377C60.5096 18.5565 60.6177 19.2362 60.834 19.7769C61.0503 20.3176 61.3593 20.727 61.7609 21.005C62.178 21.2677 62.6801 21.399 63.2671 21.399C63.8387 21.399 64.3253 21.2677 64.727 21.005C65.1441 20.727 65.4608 20.3176 65.6771 19.7769C65.8933 19.2362 66.0015 18.5565 66.0015 17.7377C66.0015 16.919 65.8933 16.2392 65.6771 15.6985C65.4608 15.1579 65.1441 14.7562 64.727 14.4936C64.3253 14.2155 63.8387 14.0765 63.2671 14.0765Z" fill="#FFFFFF"></path><path d="M53.9663 8.2373V23.5311H50.3051L44.9523 14.5402L43.6314 12.0376H43.6083L43.701 14.6792V23.5311H40.8276V8.2373H44.4656L49.8185 17.205L51.1393 19.7308H51.1856L51.093 17.0892V8.2373H53.9663Z" fill="#FFFFFF"></path><defs><filter id="filter0_f_314_3206" x="-6.7" y="-15.7" width="53.4" height="43.9" filterUnits="userSpaceOnUse" color-interpolation-filters="sRGB"><feFlood flood-opacity="0" result="BackgroundImageFix"></feFlood><feBlend mode="normal" in="SourceGraphic" in2="BackgroundImageFix" result="shape"></feBlend><feGaussianBlur stdDeviation="6.35" result="effect1_foregroundBlur_314_3206"></feGaussianBlur></filter><filter id="filter1_f_314_3206" x="-25.5" y="-24.5" width="58.5" height="84" filterUnits="userSpaceOnUse" color-interpolation-filters="sRGB"><feFlood flood-opacity="0" result="BackgroundImageFix"></feFlood><feBlend mode="normal" in="SourceGraphic" in2="BackgroundImageFix" result="shape"></feBlend><feGaussianBlur stdDeviation="8" result="effect1_foregroundBlur_314_3206"></feGaussianBlur></filter><filter id="filter2_f_314_3206" x="-10.5" y="-5" width="71.5" height="71.5" filterUnits="userSpaceOnUse" color-interpolation-filters="sRGB"><feFlood flood-opacity="0" result="BackgroundImageFix"></feFlood><feBlend mode="normal" in="SourceGraphic" in2="BackgroundImageFix" result="shape"></feBlend><feGaussianBlur stdDeviation="8.25" result="effect1_foregroundBlur_314_3206"></feGaussianBlur></filter><clipPath id="clip0_314_3206"><rect width="32" height="32" rx="4" fill="white"></rect></clipPath></defs></svg>